{"title":"Green Lantern 2011 TS XViD DTRG","uid":6486052,"size":977560651,"categoryP":"video","categoryS":"movies","magnet":"?xt=urn:btih:0efa7452ee7528c219be20625612bfb95edeaa50&amp;dn=Green+Lantern+2011+TS+XViD+DTRG&amp;tr=udp%3A%2F%2Ftracker.openbittorrent.com%3A80&amp;tr=udp%3A%2F%2Fopen.demonii.com%3A1337&amp;tr=udp%3A%2F%2Ftracker.coppersurfer.tk%3A6969&amp;tr=udp%3A%2F%2Fexodus.desync.com%3A6969","seeders":0,"leechers":0,"uploader":"SAFCukO09","files":4,"time":1308719981,"description":"\nFormat                           : AVI\nFormat/Info                      : Audio Video Interleave\nFile size                        : 932 MiB\nDuration                         : 1h 41mn\nOverall bit rate                 : 1 290 Kbps\nWriting library                  : VirtualDub build 32842/release\n\nVideo\nID                               : 0\nFormat                           : MPEG-4 Visual\nFormat profile                   : Advanced Simple@L5\nFormat settings, BVOP            : 2\nFormat settings, QPel            : No\nFormat settings, GMC             : No warppoints\nFormat settings, Matrix          : Default (H.263)\nMuxing mode                      : Packed bitstream\nCodec ID                         : XVID\nCodec ID/Hint                    : XviD\nDuration                         : 1h 41mn\nBit rate                         : 1 153 Kbps\nWidth                            : 720 pixels\nHeight                           : 320 pixels\nDisplay aspect ratio             : 2.25:1\nFrame rate                       : 25.000 fps\nColor space                      : YUV\nChroma subsampling               : 4:2:0\nBit depth                        : 8 bits\nScan type                        : Progressive\nCompression mode                 : Lossy\nBits/(Pixel*Frame)               : 0.200\nStream size                      : 833 MiB (89%)\nWriting library                  : XviD 64\n\nAudio\nID                               : 1\nFormat                           : MPEG Audio\nFormat version                   : Version 1\nFormat profile                   : Layer 3\nMode                             : Joint stereo\nMode extension                   : MS Stereo\nCodec ID                         : 55\nCodec ID/Hint                    : MP3\nDuration                         : 1h 41mn\nBit rate mode                    : Constant\nBit rate                         : 128 Kbps\nChannel(s)                       : 2 channels\nSampling rate                    : 44.1 KHz\nCompression mode                 : Lossy\nStream size                      : 92.5 MiB (10%)\nAlignment                        : Split accross interleaves\nInterleave, duration             : 40 ms (1.00 video frame)\nInterleave, preload duration     : 500 ms\nWriting library                  : LAME3.98r\nEncoding settings                : -m j -V 4 -q 2 -lowpass 17 -b 128\n\n\n\n\n\n &lt;a href=&quot;\nhttp://www.imdb.com/title/tt1133985/&quot; rel=&quot;nofollow&quot; target=&quot;_NEW&quot;&gt;\nhttp://www.imdb.com/title/tt1133985/&lt;/a&gt;\n\n\n\n\n\n\n\nUsers: 6.4/10 (4,062 votes) 140 reviews | Critics: 36 reviews Metascore: 40/100 (based on 37 reviews from Metacritic.com)\n\nA test pilot is granted a mystical green ring that bestows him with otherworldly powers, as well as membership into an intergalactic squadron tasked with keeping peace within the universe.\nDirector:\nMartin Campbell\nWriters:\nGreg Berlanti (screenplay), Michael Green (screenplay), and 5 more credits Ã‚Â»\nStars:\nRyan Reynolds, Blake Lively and Peter Sarsgaard\n\n\n\n\n\n\n\n\n\n\n &lt;a href=&quot;\nhttp://www.leetleech.org/images/14029172566856448779.png&quot; rel=&quot;nofollow&quot; target=&quot;_NEW&quot;&gt;\nhttp://www.leetleech.org/images/14029172566856448779.png&lt;/a&gt;\n &lt;a href=&quot;\nhttp://www.leetleech.org/images/21799939268622133001.png&quot; rel=&quot;nofollow&quot; target=&quot;_NEW&quot;&gt;\nhttp://www.leetleech.org/images/21799939268622133001.png&lt;/a&gt;\n &lt;a href=&quot;\nhttp://www.leetleech.org/images/73290521407319291888.png&quot; rel=&quot;nofollow&quot; target=&quot;_NEW&quot;&gt;\nhttp://www.leetleech.org/images/73290521407319291888.png&lt;/a&gt;\n &lt;a href=&quot;\nhttp://www.leetleech.org/images/30382989380274751756.png&quot; rel=&quot;nofollow&quot; target=&quot;_NEW&quot;&gt;\nhttp://www.leetleech.org/images/30382989380274751756.png&lt;/a&gt;\n\n\n\nSource Used \n\nVIDEO:Green Lantern DVD TS SORS RUSSIAN 6.17 GB ...IMAGiNE ....... Thanks\n\nAUDIO: ...........IMAGiNE ...........................................Thanks \n\n\n\nDifferent filters used on this one compared to the cam still the levels filter but more on the rgb colours than anything else .........\n\n\nEnjoy !\n\n\n\nGreetz to IMAGiNE,Flawl3ss,DiLLoN,BDK,NOiR,TOXiC,THC,Ez,Rx,Boobyblue,TaRiQ786,LKRG,\n\n\n\n\n\n\n\nCurrently looking for encoders/syncers if anything to offer contact me on &lt;a class=&quot;__cf_email__&quot; href=&quot;/cdn-cgi/l/email-protection&quot; data-cfemail=&quot;5337272134133b26203b7d323a&quot;&gt;[email&amp;#160;protected]&lt;/a&gt;&lt;script cf-hash='f9e31' type=&quot;text/javascript&quot;&gt;\n/* &lt;![CDATA[ */!function(){try{var t=&quot;currentScript&quot;in document?document.currentScript:function(){for(var t=document.getElementsByTagName(&quot;script&quot;),e=t.length;e--;)if(t[e].getAttribute(&quot;cf-hash&quot;))return t[e]}();if(t&amp;&amp;t.previousSibling){var e,r,n,i,c=t.previousSibling,a=c.getAttribute(&quot;data-cfemail&quot;);if(a){for(e=&quot;&quot;,r=parseInt(a.substr(0,2),16),n=2;a.length-n;n+=2)i=parseInt(a.substr(n,2),16)^r,e+=String.fromCharCode(i);e=document.createTextNode(e),c.parentNode.replaceChild(e,c)}}}catch(u){}}();/* ]]&gt; */&lt;/script&gt;","torrent":{"xt":"urn:btih:0efa7452ee7528c219be20625612bfb95edeaa50","amp;dn":"Green+Lantern+2011+TS+XViD+DTRG","amp;tr":["udp%3A%2F%2Ftracker.openbittorrent.com%3A80","udp%3A%2F%2Fopen.demonii.com%3A1337","udp%3A%2F%2Ftracker.coppersurfer.tk%3A6969","udp%3A%2F%2Fexodus.desync.com%3A6969"],"infoHash":"0efa7452ee7528c219be20625612bfb95edeaa50","infoHashBuffer":{"type":"Buffer","data":[14,250,116,82,238,117,40,194,25,190,32,98,86,18,191,185,94,222,170,80]},"announce":[],"urlList":[]}}